<svg xmlns="http://www.w3.org/2000/svg" width="848" height="278"><path fill-rule="evenodd" d="M843.931 105.004c-4.18 1.047-8.615 2.349-13.315 3.916-4.699 1.566-10.495 2.35-17.387 2.35-6.893 0-12.429-.314-16.605-.94l-10.025-1.253c-1.464 0-2.301.626-2.507 1.879-.837 3.554-3.656 6.061-8.458 7.519-4.808 1.675-7.989 3.917-9.556 6.736-1.566 2.82-2.35 6.633-2.35 11.435 0 1.674.416 2.82 1.254 3.447.832.626 2.819.734 5.952.313 23.6-3.133 39.994-4.7 49.187-4.7 3.133 0 5.326.891 6.579 2.663 1.253 1.777 3.809 6.217 7.676 13.315 3.862 7.103 5.796 12.429 5.796 15.978 0 3.554-1.307 5.326-3.916 5.326-2.614 0-6.423-.832-11.436-2.506-7.729-2.923-19.845-4.386-36.342-4.386-6.265 0-11.645.21-16.134.626-4.494.421-7.157.994-7.989 1.724-.837.734-1.253 2.144-1.253 4.229 0 11.699-.314 24.544-.94 38.535-.627 13.995-1.253 21.823-1.88 23.497-.626 1.669-.94 9.399-.94 23.184l.314 12.531c0 2.712-.891 4.543-2.663 5.483-1.777.94-4.543 1.41-8.303 1.41-14.206 0-27.834-2.037-40.884-6.11-13.056-4.072-23.027-9.398-29.92-15.977-6.892-6.58-10.338-11.646-10.338-15.195 0-.837.518-1.253 1.566-1.253 1.043 0 2.82.626 5.326 1.879 8.772 4.803 20.154 7.206 34.149 7.206 5.845 0 11.954-.577 18.327-1.723 6.369-1.15 10.599-5.013 12.689-11.592 2.085-6.579 3.133-14.46 3.133-23.653 0-9.189-.367-17.804-1.097-25.847-.734-8.038-1.361-12.424-1.88-13.158-.523-.73-1.517-1.097-2.976-1.097-4.386 0-18.327 1.88-41.824 5.639-23.497 3.76-37.439 7.103-41.825 10.026-1.88 1.253-3.97 1.88-6.266 1.88-2.301 0-4.337-1.929-6.109-5.796-1.777-3.863-2.663-6.736-2.663-8.616s1.356-2.976 4.073-3.289c2.712-.314 6.158-.886 10.339-1.724 4.175-.832 7.151-1.566 8.928-2.193 1.772-.626 6.628-1.879 14.568-3.759 7.936-1.88 15.141-3.339 21.618-4.386 6.471-1.043 13.574-2.82 21.304-5.326 7.724-2.507 12.321-4.332 13.784-5.483 1.459-1.145 2.193-2.555 2.193-4.229 0-1.67-.367-4.019-1.096-7.049-.734-3.026-1.777-4.543-3.133-4.543-1.361 0-3.867.367-7.519 1.096-3.657.735-6.374 1.567-8.146 2.507-1.777.94-2.976 1.41-3.602 1.41-1.88 0-4.494-2.869-7.833-8.616-3.343-5.742-5.013-9.712-5.013-11.905 0-2.193.784-3.862 2.35-5.013 1.567-1.145 11.851-4.175 30.86-9.085 19.003-4.905 31.691-7.363 38.065-7.363 6.368 0 10.598 1.777 12.688 5.326.832 1.675 1.982 2.507 3.446 2.507 3.339 0 8.978-1.772 16.918-5.326 7.935-3.549 11.905-8.249 11.905-14.098 0-4.387-1.62-8.405-4.856-12.062-3.241-3.652-7.832-5.483-13.785-5.483-5.952 0-12.062 1.048-18.327 3.133-19.008 6.687-32.113 10.916-39.319 12.688-7.205 1.777-15.351 2.874-24.436 3.29-9.086.421-16.032 1.987-20.834 4.699-1.464.838-2.614 1.254-3.447 1.254-2.3 0-3.446-2.923-3.446-8.773 0-3.965 1.513-5.952 4.543-5.952 3.025 0 7.255-1.097 12.688-3.29 5.429-2.193 14.098-4.802 26.003-7.832 11.906-3.025 22.244-5.272 31.016-6.736 8.773-1.459 14.931-2.766 18.485-3.916 3.549-1.145 6.892-1.723 10.025-1.723 15.244 0 28.769 6.736 40.571 20.207 11.798 13.472 17.701 23.135 17.701 28.98 0 1.464-1.15 2.506-3.446 3.133Zm-95.867-52.947c-3.97 0-9.556-3.182-16.761-9.555-7.206-6.369-10.809-11.954-10.809-16.761 0-4.802 1.826-10.285 5.483-16.448 3.651-6.158 7.362-9.242 11.122-9.242 4.591 0 7.935 3.24 10.025 9.712.832 2.301 2.296 5.747 4.386 10.338 2.085 4.597 3.446 7.314 4.073 8.146 2.922 3.97 4.386 8.146 4.386 12.532 0 3.343-.994 6.06-2.976 8.145-1.988 2.091-4.964 3.133-8.929 3.133Zm-73.624 75.817c-5.013 0-10.706-1.566-17.074-4.699-6.374-3.133-9.556-5.845-9.556-8.146 0-2.296 3.29-7.935 9.869-16.918 6.579-8.977 11.171-13.471 13.785-13.471 2.609 0 3.916 1.674 3.916 5.012 0 1.048-.211 2.717-.627 5.013-.421 2.301-.626 4.386-.626 6.266 0 3.343.989 7.049 2.976 11.122 1.983 4.073 2.976 7.157 2.976 9.242 0 4.386-1.88 6.579-5.639 6.579ZM574.343 239.72c-2.404.626-5.434 1.723-9.085 3.289-3.657 1.567-9.194 2.35-16.605 2.35-7.416 0-16.448-.783-27.1-2.35-10.652-1.566-18.954-2.614-24.907-3.133-5.952-.524-9.765-1.62-11.435-3.289-1.674-1.675-3.186-6.056-4.542-13.159-1.361-7.098-4.543-13.417-9.556-18.954-5.013-5.531-11.073-9.917-18.171-13.158-7.103-3.236-14.309-6.893-21.617-10.965-7.313-4.073-12.899-7.363-16.761-9.869-3.867-2.506-8.723-4.543-14.568-6.109-5.85-1.567-10.339-2.35-13.472-2.35-3.133 0-5.952 2.09-8.459 6.266-5.012 8.772-11.332 17.339-18.954 25.69-7.627 8.356-11.646 16.712-12.062 25.063-.21 3.344-.783 5.796-1.723 7.363-.94 1.566-3.289 3.71-7.049 6.422-3.759 2.712-10.603 5.272-20.521 7.676-9.922 2.398-16.031 3.603-18.327 3.603-2.301 0-3.446-.627-3.446-1.88 0-2.717 9.917-13.574 29.762-32.583 5.429-5.012 12.478-13.887 21.148-26.629 8.664-12.738 14.773-27.413 18.327-44.018 3.549-16.604 5.326-30.336 5.326-41.198 0-10.858-.626-18.063-1.88-21.617-1.253-3.549-4.023-6.785-8.302-9.712-4.283-2.923-6.422-5.272-6.422-7.049 0-1.772.675-3.965 2.036-6.579 1.356-2.61 2.555-4.073 3.603-4.387 1.043-.313 3.446-.259 7.206.157 3.759.421 7.254.627 10.495.627 3.236 0 9.345-1.302 18.328-3.916 8.977-2.61 16.026-4.436 21.147-5.483 5.115-1.043 10.128-1.567 15.038-1.567 4.905 0 9.501-.416 13.785-1.253 4.278-.832 7.465-1.253 9.555-1.253 5.845 0 14.255 2.874 25.22 8.616 10.966 5.747 16.448 10.079 16.448 13.001 0 1.253-1.047 2.82-3.133 4.7-2.09 1.879-4.494 5.326-7.206 10.338-5.639 10.652-10.392 17.912-14.254 21.774-3.868 3.867-5.796 10.603-5.796 20.208 0 3.132-.891 5.277-2.663 6.422-1.777 1.15-6.374 1.723-13.785 1.723-7.416 0-17.075 1.097-28.98 3.29-11.905 2.193-19.532 4.283-22.87 6.266-3.343 1.987-5.013 3.553-5.013 4.699 0 1.15 1.88 2.56 5.64 4.229 23.183 10.863 41.667 21.931 55.452 33.209 9.189 7.519 15.454 12.013 18.798 13.472a209.867 209.867 0 0 1 21.774 11.905c6.995 4.386 16.918 8.513 29.763 12.375 12.844 3.867 24.955 8.459 36.341 13.785 11.382 5.326 17.075 9.134 17.075 11.435 0 1.043-1.204 1.88-3.603 2.507ZM396.236 102.811c.627.837 2.453 1.253 5.483 1.253 3.025 0 8.508-.94 16.448-2.82 7.935-1.879 13.417-3.652 16.448-5.326 3.025-1.669 6.001-4.591 8.928-8.772 2.923-4.176 5.272-8.459 7.049-12.845 1.772-4.386 2.663-8.459 2.663-12.218 0-6.056-3.24-9.086-9.712-9.086-2.506 0-7.205 1.048-14.098 3.133-6.892 2.09-13.055 4.127-18.484 6.109-5.434 1.988-9.242 3.657-11.435 5.013-2.193 1.361-3.397 2.457-3.603 3.29-.211.837-.313 4.493-.313 10.965l-.314 16.918c0 2.09.314 3.554.94 4.386Zm-166.202 28.196c-1.776 0-4.807-.94-9.085-2.82-4.283-1.879-12.326-2.819-24.124-2.819-11.802 0-23.237.734-34.305 2.193-11.073 1.464-19.111 3.24-24.124 5.326l-12.218 5.012c-3.133 1.254-4.91 2.561-5.326 3.917-.421 1.361-.627 6.633-.627 15.821 0 9.193 1.043 16.448 3.133 21.774 2.086 5.326 5.326 9.452 9.712 12.375 4.387 2.927 9.815 4.386 16.292 4.386 14.411 0 23.027-.47 25.846-1.41 2.82-.94 4.856-1.41 6.109-1.41 3.55 0 6.942 2.507 10.182 7.519 3.236 5.013 4.857 8.826 4.857 11.435 0 2.615-.838 4.7-2.507 6.266-1.674 1.567-8.929 3.29-21.774 5.17-12.845 1.879-22.557 2.819-29.136 2.819-6.579 0-11.748-1.042-15.508-3.133-3.759-2.085-8.043-6.682-12.845-13.785-4.807-7.098-8.929-15.194-12.375-24.28-3.446-9.085-6.109-19.58-7.989-31.486-.421-3.133-2.35-4.229-5.796-3.289s-9.663 2.036-18.641 3.289c-8.982 1.254-16.399 2.874-22.243 4.856-5.85 1.988-14.725 6.217-26.63 12.689-1.464.837-2.614 1.253-3.447 1.253-2.09 0-5.379-3.29-9.868-9.869-4.494-6.579-6.736-11.278-6.736-14.098 0-2.82 3.025-4.645 9.085-5.483 27.57-4.175 45.741-8.145 54.513-11.905 3.133-1.253 11.905-4.489 26.317-9.712 1.669-.416 2.712-1.199 3.133-2.349.416-1.146.626-5.013.626-11.592 0-6.579-.626-14.828-1.879-24.75-1.253-9.918-1.88-17.491-1.88-22.714 0-5.218.519-9.604 1.566-13.158 1.043-3.549 2.037-5.796 2.977-6.736.94-.94 2.349-1.41 4.229-1.41 3.133 0 8.508 1.097 16.135 3.29 7.622 2.193 11.435 4.856 11.435 7.989 0 1.674-.94 3.656-2.82 5.952-6.266 7.314-9.399 17.339-9.399 30.076 0 5.639.573 10.706 1.724 15.195 1.145 4.494 1.825 7.676 2.036 9.555.206 1.88 1.723 2.458 4.543 1.723 2.819-.729 6.055-1.145 9.712-1.253 3.652-.103 12.688-1.772 27.1-5.012 14.411-3.236 25.533-6.11 33.365-8.616 7.833-2.506 13.315-3.759 16.448-3.759 3.133 0 6.158 1.776 9.086 5.326l10.025 12.845c3.965 5.012 5.953 8.982 5.953 11.905 0 1.253-.368 2.716-1.097 4.386-.734 1.674-1.987 2.506-3.76 2.506Z"/></svg>